<svg width="41" height="29" viewBox="0 0 41 29" fill="none" xmlns="http://www.w3.org/2000/svg">
<path d="M39.7071 8.70711C40.0976 8.31658 40.0976 7.68342 39.7071 7.29289L33.3431 0.928932C32.9526 0.538408 32.3195 0.538408 31.9289 0.928932C31.5384 1.31946 31.5384 1.95262 31.9289 2.34315L37.5858 8L31.9289 13.6569C31.5384 14.0474 31.5384 14.6805 31.9289 15.0711C32.3195 15.4616 32.9526 15.4616 33.3431 15.0711L39.7071 8.70711ZM0 9H39V7H0V9Z" fill="#F77F00" fill-opacity="0.7"/>
<path d="M1.29289 20.2929C0.90237 20.6834 0.90237 21.3166 1.29289 21.7071L7.65685 28.0711C8.04738 28.4616 8.68054 28.4616 9.07107 28.0711C9.46159 27.6805 9.46159 27.0474 9.07107 26.6569L3.41422 21L9.07107 15.3431C9.46159 14.9526 9.46159 14.3195 9.07107 13.9289C8.68054 13.5384 8.04738 13.5384 7.65685 13.9289L1.29289 20.2929ZM41 20L2 20V22L41 22V20Z" fill="#F77F00" fill-opacity="0.7"/>
</svg>
