<svg width="40" height="53" viewBox="0 0 40 53" fill="none" xmlns="http://www.w3.org/2000/svg">
<path d="M4.99998 53C3.62498 53 2.4479 52.5104 1.46873 51.5312C0.489568 50.5521 -1.52588e-05 49.375 -1.52588e-05 48V23C-1.52588e-05 21.625 0.489568 20.4479 1.46873 19.4688C2.4479 18.4896 3.62498 18 4.99998 18H7.49998V13C7.49998 9.54167 8.71873 6.59375 11.1562 4.15625C13.5937 1.71875 16.5417 0.5 20 0.5C23.4583 0.5 26.4062 1.71875 28.8437 4.15625C31.2812 6.59375 32.5 9.54167 32.5 13V18H35C36.375 18 37.5521 18.4896 38.5312 19.4688C39.5104 20.4479 40 21.625 40 23V48C40 49.375 39.5104 50.5521 38.5312 51.5312C37.5521 52.5104 36.375 53 35 53H4.99998ZM4.99998 48H35V23H4.99998V48ZM20 40.5C21.375 40.5 22.5521 40.0104 23.5312 39.0312C24.5104 38.0521 25 36.875 25 35.5C25 34.125 24.5104 32.9479 23.5312 31.9688C22.5521 30.9896 21.375 30.5 20 30.5C18.625 30.5 17.4479 30.9896 16.4687 31.9688C15.4896 32.9479 15 34.125 15 35.5C15 36.875 15.4896 38.0521 16.4687 39.0312C17.4479 40.0104 18.625 40.5 20 40.5ZM12.5 18H27.5V13C27.5 10.9167 26.7708 9.14583 25.3125 7.6875C23.8541 6.22917 22.0833 5.5 20 5.5C17.9166 5.5 16.1458 6.22917 14.6875 7.6875C13.2291 9.14583 12.5 10.9167 12.5 13V18Z" fill="#FFF"/>
</svg>
