<svg width="26" height="24" viewBox="0 0 26 24" fill="none" xmlns="http://www.w3.org/2000/svg">
<g id="schedule">
<mask id="mask0_138_37" style="mask-type:alpha" maskUnits="userSpaceOnUse" x="0" y="0" width="26" height="24">
<rect id="Bounding box" x="0.770691" width="24.2777" height="24" rx="12" fill="#D9D9D9"/>
</mask>
<g mask="url(#mask0_138_37)">
<path id="schedule_2" d="M15.5478 16.0081C15.9357 16.3915 16.5599 16.3915 16.9477 16.0081C17.342 15.6183 17.342 14.9817 16.9477 14.5919L14.8848 12.5526C14.2682 11.9431 13.9212 11.112 13.9212 10.245V8.01157C13.9212 7.4529 13.4683 7 12.9096 7C12.3509 7 11.898 7.4529 11.898 8.01157V10.8093C11.898 11.8272 12.3054 12.8027 13.0293 13.5183L15.5478 16.0081ZM12.9096 22C11.5103 22 10.1952 21.7375 8.96447 21.2125C7.73373 20.6875 6.66315 19.975 5.75273 19.075C4.84232 18.175 4.12157 17.1167 3.5905 15.9C3.05942 14.6833 2.79388 13.3833 2.79388 12C2.79388 10.6167 3.05942 9.31667 3.5905 8.1C4.12157 6.88333 4.84232 5.825 5.75273 4.925C6.66315 4.025 7.73373 3.3125 8.96447 2.7875C10.1952 2.2625 11.5103 2 12.9096 2C14.3089 2 15.624 2.2625 16.8547 2.7875C18.0855 3.3125 19.1561 4.025 20.0665 4.925C20.9769 5.825 21.6976 6.88333 22.2287 8.1C22.7598 9.31667 23.0253 10.6167 23.0253 12C23.0253 13.3833 22.7598 14.6833 22.2287 15.9C21.6976 17.1167 20.9769 18.175 20.0665 19.075C19.1561 19.975 18.0855 20.6875 16.8547 21.2125C15.624 21.7375 14.3089 22 12.9096 22ZM12.9096 20C15.1519 20 17.0613 19.2208 18.6376 17.6625C20.214 16.1042 21.0022 14.2167 21.0022 12C21.0022 9.78333 20.214 7.89583 18.6376 6.3375C17.0613 4.77917 15.1519 4 12.9096 4C10.6673 4 8.75794 4.77917 7.18158 6.3375C5.60521 7.89583 4.81703 9.78333 4.81703 12C4.81703 14.2167 5.60521 16.1042 7.18158 17.6625C8.75794 19.2208 10.6673 20 12.9096 20Z" fill="white"/>
</g>
</g>
</svg>
