<svg width="429" height="64" viewBox="0 0 429 64" fill="none" xmlns="http://www.w3.org/2000/svg">
<path d="M70.0326 31.7373C70.0326 29.8272 69.4127 28.2708 68.1903 27.1116C65.7448 24.7908 61.769 24.9709 61.6 24.9811L46.9987 25.7668L41.765 17.8641H45.5908V16.224H40.6776L37.3098 11.1403H41.0795V9.50019H36.224L31.6173 2.54265L22.6477 0H22.6462L28.5408 21.3464L30.0135 26.6836L13.6308 27.5656L7.85614 20.7786H0L0.0584255 20.9145H0.00631367L4.67231 31.8052L0.00631367 42.696H0.0584255L0 42.8318H7.85614L13.6308 36.044L30.0135 36.9268L28.5385 42.2632L22.6462 63.6104L31.6157 61.0662L36.224 54.1094H41.0795V52.4694H37.3098L40.6776 47.3856H45.5908V45.7463H41.765L46.9979 37.8436L61.6 38.6285C61.769 38.6388 65.7448 38.8196 68.1903 36.4988C69.4119 35.3389 70.0326 33.7833 70.0326 31.8723C70.0326 31.8494 70.0326 31.8273 70.0302 31.8052C70.0326 31.7815 70.0326 31.7602 70.0326 31.7373ZM25.0032 2.37288L30.586 3.95532L32.4898 6.8312L45.162 25.9634L31.7168 26.6883L30.8268 23.4674L25.0032 2.37288ZM32.4898 56.7784L30.586 59.6551L25.0032 61.2368L30.8268 40.1438L31.7168 36.9229L45.162 37.6478L32.4898 56.7784Z" fill="url(#paint0_linear_65_7)"/>
<path d="M92.8433 17.6989H118.515V25.5414H101.306V31.0707H115.13V38.9132H101.306V52.2286H92.8433V17.6989ZM122.521 24.018H130.984V52.2286H122.521V24.018ZM126.752 21.3663C123.875 21.3663 121.844 19.3351 121.844 16.4576C121.844 13.5237 123.875 11.6054 126.752 11.6054C129.686 11.6054 131.605 13.5237 131.605 16.4576C131.605 19.4479 129.743 21.3663 126.752 21.3663ZM165.683 38.1233V52.2286H157.22V38.1233C157.22 34.2303 155.414 31.5785 151.295 31.5785C147.233 31.5785 145.371 34.2867 145.371 38.1233V52.2286H136.908V38.1233C136.908 29.4345 142.889 23.7359 151.295 23.7359C160.041 23.7359 165.683 29.7166 165.683 38.1233ZM190.677 38.1233C190.677 33.8917 188.59 31.5785 184.302 31.5785C183.117 31.5785 182.101 31.7477 181.255 32.0863C179.675 32.8197 178.603 33.8917 178.096 35.5844C177.813 36.3743 177.701 37.2206 177.701 38.1233C177.701 39.026 177.813 39.8724 178.096 40.6623C178.547 42.2985 179.732 43.4833 181.255 44.1039C182.101 44.4989 183.117 44.6682 184.302 44.6682C188.59 44.6682 190.677 42.3549 190.677 38.1233ZM190.677 26.8391V12.7338H199.141V38.1233C199.141 47.0943 192.765 52.5107 184.245 52.5107C175.557 52.5107 169.237 46.8686 169.237 38.2362C169.237 30.2808 175.105 23.7359 183.117 23.7359C186.107 23.7359 188.703 24.5823 190.677 26.8391ZM213.641 33.2147V52.2286H205.178V17.6989H213.641L224.417 36.7692L235.194 17.6989H243.657V52.2286H235.194V33.2147L228.649 44.4425H220.186L213.641 33.2147ZM257.367 34.738C258.213 35.0202 259.173 35.2458 260.188 35.3587C261.204 35.5279 262.163 35.5844 263.066 35.5844C264.194 35.5844 267.072 35.3587 267.072 33.7225C267.072 31.9734 264.589 31.917 263.348 31.917C260.865 31.917 258.721 32.4812 257.367 34.738ZM273.334 43.4269V51.3258C270.175 52.0593 267.015 52.5671 263.743 52.5671C254.772 52.5671 248.114 47.3199 248.114 38.2362C248.114 29.2652 254.546 23.7359 263.066 23.7359C268.877 23.7359 275.591 26.5006 275.591 33.1018C275.591 39.6467 268.482 42.0728 263.009 42.0728C260.922 42.0728 258.834 41.5086 256.916 40.7187C258.044 43.8783 261.429 44.386 264.363 44.386C265.887 44.386 267.41 44.3296 268.933 44.1039C270.344 43.9911 271.98 43.8218 273.334 43.4269ZM278.13 17.6989H306.905V25.5414H296.749V52.2286H288.286V25.5414H278.13V17.6989ZM310.629 24.018H319.092V52.2286H310.629V24.018ZM314.86 21.3663C311.983 21.3663 309.952 19.3351 309.952 16.4576C309.952 13.5237 311.983 11.6054 314.86 11.6054C317.794 11.6054 319.712 13.5237 319.712 16.4576C319.712 19.4479 317.85 21.3663 314.86 21.3663ZM347.189 42.9191V51.3823C344.312 52.3414 341.322 52.6235 338.331 52.6235C329.586 52.6235 323.38 46.8122 323.38 38.1797C323.38 29.2088 329.812 23.7359 338.331 23.7359C341.322 23.7359 344.312 24.018 347.189 24.9772V33.4404C344.707 32.1427 341.604 31.8042 338.839 31.8042C336.977 31.8042 334.72 32.1991 333.423 33.666C332.238 34.8509 331.843 36.5435 331.843 38.1233C331.843 39.026 331.956 39.8724 332.238 40.6058C332.464 41.3957 332.858 42.0728 333.423 42.637C334.664 44.1604 336.977 44.5553 338.839 44.5553C341.322 44.5553 344.989 44.1039 347.189 42.9191ZM368.686 24.018H377.149V26.8391C377.149 31.1271 375.682 35.2458 372.523 38.1797L379.97 52.2286H369.532L360.787 35.5279V52.2286H352.324V12.7338H360.787V34.0046H362.085C366.655 34.0046 368.686 30.9578 368.686 26.7827V24.018ZM389.336 34.738C390.182 35.0202 391.141 35.2458 392.157 35.3587C393.173 35.5279 394.132 35.5844 395.035 35.5844C396.163 35.5844 399.04 35.3587 399.04 33.7225C399.04 31.9734 396.558 31.917 395.317 31.917C392.834 31.917 390.69 32.4812 389.336 34.738ZM405.303 43.4269V51.3258C402.144 52.0593 398.984 52.5671 395.712 52.5671C386.741 52.5671 380.083 47.3199 380.083 38.2362C380.083 29.2652 386.515 23.7359 395.035 23.7359C400.846 23.7359 407.56 26.5006 407.56 33.1018C407.56 39.6467 400.451 42.0728 394.978 42.0728C392.891 42.0728 390.803 41.5086 388.885 40.7187C390.013 43.8783 393.398 44.386 396.332 44.386C397.856 44.386 399.379 44.3296 400.902 44.1039C402.313 43.9911 403.949 43.8218 405.303 43.4269ZM427.364 24.9772V32.8197H419.465V38.1233C419.465 42.4677 422.342 44.6682 426.517 44.6682C427.025 44.6682 427.477 44.6117 427.872 44.5553C428.267 44.4989 428.605 44.4425 429 44.386V52.2286C428.492 52.285 428.097 52.3978 427.815 52.4543C427.477 52.5107 426.912 52.5107 426.179 52.5107C417.659 52.5107 411.002 46.6993 411.002 38.1233V17.2475H419.465V24.9772H427.364Z" fill="url(#paint1_linear_65_7)"/>
<defs>
<linearGradient id="paint0_linear_65_7" x1="0" y1="0" x2="70.0326" y2="0" gradientUnits="userSpaceOnUse">
<stop stop-color="#EF4136"/>
<stop offset="1" stop-color="#FBB040"/>
</linearGradient>
<linearGradient id="paint1_linear_65_7" x1="92.8433" y1="11.6054" x2="429" y2="11.6054" gradientUnits="userSpaceOnUse">
<stop stop-color="#EF4136"/>
<stop offset="1" stop-color="#FBB040"/>
</linearGradient>
</defs>
</svg>
